<svg xmlns="http://www.w3.org/2000/svg" viewBox="0 0 32 32">
    <path d="M18.688 7.75c0 .063 0 .188.063.313-.125.063-.125.313-.25.438 0 0 .125.063.063.063 0 .063 0 .125-.063.125 0 0 .063 0 0 .063v.313l-.063.063c-.063.125 0 .313 0 .438-.063 0-.063 0-.063.063l-.063.063c0 .063.063.063.063.063-.063.063 0 .313 0 .438 0 .063-.063.188-.063.25v.251c0 .063.063.063.063.125 0 .063 0 .125.063.188v.126s.063.125.063.188c.063 0 .063.063.063.125s.063.063.063.188h.063c0 .063.125.063.063.188.125 0 .25.188.375.125.063 0 .063-.063.125-.125h.063c0-.063 0-.063.063-.063s.063-.125.125-.125h.188c0 .063 0 .063.063.063 0 .125.063.125.063.188s.063.25.125.25c.063.063.063 0 .125.063.063 0 .188 0 .313-.063 0 0 .063 0 .125-.063v-.063l.063.063c.063-.063.063-.125.125-.188s.125-.125.25-.188c0-.063.063-.125.125-.125 0-.063 0-.188.063-.188 0-.188.063-.25.125-.375-.063-.125-.063-.25-.125-.313s-.25-.125-.313-.25c-.063 0-.125 0-.188-.063 0-.125.063-.125.125-.25.188 0 .375-.063.625 0h.063c.063 0 .063.063.063.063.063 0 .063 0 .125.063v.063c.063.063.063.25.125.313s0 .063 0 .125c.063.063.063 0 .125 0 .063-.063.063-.188.125-.313l.063-.063.125-.125v-.063s.063-.063.063-.125l.125-.125s0-.063.063-.125v-.063c.063-.125.063-.188.125-.25s.063-.125.125-.125c.063-.125.125-.188.188-.313.125 0 .188-.125.25-.25.063 0 .125-.063.188-.063.063-.063.063-.125.125-.125h.188l.063.063h.125s0 .125.063.063c.063.125.125.125.188.125 0 .063.063.125.125.188.063 0 .063.063.125.063l.188.188c.125-.063.188 0 .25 0h.063c0 .063.063 0 .063.063.063 0 .063.063.125.125 0 .063.063.063.125.125 0 .125.063.188.125.313.25.125.375.438.438.75.063.063.063.125.188.188-.063.063 0 .125.063.188-.063.125 0 .313 0 .438v.063c.063 0 .063.063.063.125s.063.063.063.125c0 0-.063.063 0 .063 0 .125.125.25.063.438 0 .063.063.063.063.125v.188c.063 0 0 0 0 0-.063.063 0 .063 0 .125-.063.063-.063.125-.125.25 0 .063.063.063.125.063-.063.125-.125.25-.25.313.063.063-.125.25-.063.375h.063v.25c.063 0 .063 0 .063.063v.375c0 .062.063.125.063.188.063.063.125.063.188.063 0 .063 0 .125.063.125.063.125.063.313.125.438 0 .063.063.063.063.188 0 .063.125.125.063.25.063 0 .063.063.125.063v.188c.125.125.125.313.25.375 0 .188.125.25.188.438 0 0 0 .063.063.063-.063.125.125.188.063.25s-.125.125-.25.125c0 .063 0 .188.063.25 0 0 .063 0 .063.063 0 0 0 .063.063.063s.125 0 .25-.063c0 0 0 .063.063.125h.125v.125l.063.063c0 .063 0 .125.063.125v.125c0 .062.063.063.063.125s0 .125.063.188h.063s-.063.188.063.125c0 .25.125.313.25.375 0 .063-.063.063-.063.125l.125.125v.126c.063.063.063.063.063.125.063.063.188.063.188.188 0 .063.063.063.125.063v.188s.063.063.063.125c0 0 .063.063.063.125l.063.063c0 .063.063.125.063.188.063.063.125.25.25.313v.125c.063.125.125.25.063.438h-.063c0 .063-.063.063-.125.063s-.063-.063-.125-.063l-.063.063c-.063 0-.063.063-.063.063s0-.063-.063-.063c-.063.063-.125.188-.25.25h-.063s.063 0 0 0c0 .063 0 0 0 0a.856.856 0 00-.25.188c0 .063-.063.063-.063.125-.063 0-.063.063-.125.063 0 .125-.125.125-.188.188-.063 0-.063.063-.125.063 0 .063-.125.063-.188.125-.125 0-.188.063-.313.125 0 .063 0 0-.063.063 0 0-.063 0-.063.063l-.063-.063v.063l-.125.125c-.062.062-.063.063-.063.125-.25.063-.375.25-.563.438-.063-.063-.063 0-.125 0-.188.125-.5.188-.688.375h-.125c-.063.063-.125.063-.188.188-.125 0-.188.063-.25.063h-.063c0 .063-.063.063-.125.125-.25-.063-.563.063-.75-.063 0 0-.063.063-.063 0-.063 0-.063.063-.063.063-.063-.063-.125 0-.188 0h-.125v.063h-.125c-.062 0-.125.063-.125.063-.188 0-.25 0-.375.063-.063 0-.063.063-.125.063v-.063.063c-.125 0-.25-.063-.375 0 0 .063-.063.063-.063.063h-.063l-.063.063c-.063 0-.125 0-.188.063-.125-.063-.313-.063-.375-.125-.188.125-.563.063-.688-.063-.063 0-.125.063-.125.063-.063-.063-.125 0-.125-.063h-.188c-.063-.063-.125 0-.125-.063-.25.063-.5-.125-.688-.063 0-.063-.125-.063-.188-.125-.063 0-.125-.063-.188-.063 0-.063-.063-.063-.063-.063-.125-.063-.188-.063-.313-.125 0-.125-.063-.188-.125-.313 0-.063-.063-.063-.125-.063 0-.188-.125-.25-.188-.375v-.063c0-.063-.063-.063-.063-.125l-.063-.063c0-.063 0-.125-.063-.25v-.063-.313-.125c-.063-.063-.063-.125-.125-.188 0 0 0-.063-.063-.125 0-.063-.063-.063-.125-.125.063-.063 0-.125-.063-.188 0-.063 0-.125-.063-.188 0 0 0-.063-.063 0 0-.25-.188-.313-.313-.438-.063 0-.063-.063-.125 0-.125-.188-.375-.188-.5-.375-.125 0-.25-.063-.313-.063s-.125-.063-.188-.063-.188 0-.25-.063c-.063 0-.063 0-.125-.063 0 0-.063.063-.063 0-.125 0-.188-.063-.25-.063-.125-.063-.25-.063-.375-.063v-.063h-.314c0-.063-.063-.063-.063-.125-.063 0-.125 0-.125-.063-.063.063-.188 0-.25 0-.063.063-.125-.063-.188 0h-.313s-.063 0-.188.063h-.126l-.063.063c-.063 0-.125 0-.125.063-.25 0-.313.25-.5.313-.063 0-.125.063-.125.125-.063 0-.063.063-.063.063-.063 0-.063 0-.063.063h-.125c-.063 0-.063 0-.063.063-.125 0-.313 0-.438.125 0 0-.063-.063-.125 0H12c-.063 0-.063 0-.125.063-.063 0-.125.125-.188.188-.063 0-.063-.063-.125-.063s-.125.063-.188.125c-.063-.063-.125 0-.125 0-.125.063-.25.063-.375.063-.188.063-.313.188-.438.313-.125 0-.188.063-.313.063-.063.063-.125.125-.25.125v.063c-.063 0-.125-.063-.25-.063-.125-.063-.438-.063-.625 0h-.313c-.063-.063-.125-.063-.188-.063s-.125 0-.188.063c-.063 0-.125-.063-.125-.125-.063 0-.063 0-.125-.063h-.125s0-.063-.063-.063c0 0-.063-.063-.125-.063l-.063-.063h-.188c-.063-.063-.125 0-.188 0 0-.063 0-.063-.063-.063s-.063 0-.125-.063c-.125 0-.313 0-.5-.063-.063-.188-.063-.438.063-.563.125 0 .188-.063.375-.063.063 0 .125-.063.188-.063h.25l.063-.063c.125-.125.25-.188.313-.313 0-.063-.063 0-.063-.063-.063 0-.063-.063-.063-.063h-.063c-.375-.063-.563.063-.875.125l-.063.063h-.125c-.063.063-.125.125-.188.125-.125 0-.125.063-.25.125 0 0 0 .063-.063.063 0 .063-.063 0-.063.125H5.93l-.125.125c-.063-.063-.125.125-.188.125 0 0-.063.125-.125.125 0 .063-.063.063 0 .188-.063-.063-.125-.063-.125 0-.063 0-.063.125-.125.188l-.063.063c0 .125 0 .188-.063.25v.375l.063.063h-.063c0 .063.063.063.063.125v.063c.063 0 .063.188.125.313 0 0 0-.063 0 0 0 0 0 .063.063.063 0 .125.063.125.125.188-.063.063-.063.063-.125.063-.063.125-.125.188-.188.25s-.063.125-.125.188c0-.063-.063 0-.125.063-.188 0-.438-.063-.5 0h-.188c-.063-.063-.125 0-.188 0-.063-.063-.25-.063-.375-.063-.063 0-.063-.063-.063-.063h-.063c-.063 0-.063-.063-.063-.063h-.188c0-.063 0-.125-.063-.125s-.125-.188-.125-.188c-.063-.125-.125-.125-.125-.188-.063-.063-.063-.188-.125-.313s-.125-.188-.188-.25v-.188h-.063c-.063-.063 0-.125-.063-.188 0 0-.063 0-.063-.063v-.125c-.063-.188-.125-.375-.063-.563l.063-.063c0-.063 0-.313.063-.438 0-.125.063-.188.063-.313.125-.063.125-.188.188-.25 0-.063.063 0 .063-.125 0-.063.063-.063.063-.125 0 0 .063-.063.125-.063 0-.063.063-.063.125-.125v-.063c.063-.125.188-.25.25-.375.063 0 .125-.063.188-.063v-.063a.194.194 0 00.063-.125c.063-.063.188-.063.25-.125 0 0 .063-.125.125-.125.125-.125.25-.125.313-.25h.125c.063-.063.188-.125.25-.188.063 0 .063-.063.125-.063.063-.063.188 0 .313-.125.063 0 .063 0 .125-.063h.125c.125-.063.188-.188.375-.25v-.188c0-.063.063-.063 0-.188v-.063c-.063-.063 0-.125 0-.125-.063-.125-.125-.188-.125-.313-.125-.125-.188-.375-.188-.625 0-.063.063-.063.063-.063v-.063s-.063-.063 0-.125.063-.125.125-.188v-.063c.063-.063.125 0 .125-.125.063.063.25.063.313 0h.627c.063 0 .25-.063.375-.063.063 0 .063.063.125 0s.125 0 .063-.063c.188 0 .25-.063.313-.125h.188c.063-.063.063-.063.125-.063h.063l.063-.063s0 .063.063.063l.063-.063h.188v-.063h.125l.188-.188h.501c.125 0 .188 0 .25.063.125-.063.25-.063.313-.125s.063 0 .125 0c.063-.063.125-.063.188-.125.125.063.188 0 .313 0 0-.063.063 0 .063 0l.063-.063c.125-.063.25-.063.375-.063l.063-.063h.063c.063-.063.125-.063.188-.063s.125-.125.188-.125c.063-.063.125-.063.188-.125 0 0 .063-.063.125-.063 0-.063.063-.125.125-.125.063-.063.125-.125.188-.125 0-.063.063-.125.063-.188.125 0 .125-.063.188-.063.063-.063.063-.063.063-.125.063 0 .063-.063.063-.063l.188-.188.188-.188c.063 0 .063-.063.063-.125.063 0 .125-.063.188-.063.063-.063.063-.125.125-.188h.125c.062 0 .125-.063.188-.125 0 0 .063 0 .063-.063s.125-.063.063-.125c.125.063.188 0 .25-.063.063 0 .125-.063.125-.125h.125c.062 0 .125-.125.188-.125s.125 0 .125-.063h.125c.063-.063.25-.063.313-.188.063 0 .188 0 .313-.063l.063-.063c.125 0 .125-.125.188-.125.063-.063.188-.125.25-.188.125-.063.125-.125.25-.188.063-.063.063-.063.063-.125.125 0 .125-.063.188-.125 0 0 .063-.063.125-.063.063-.063.125-.125.25-.125.063 0 .125-.063.188-.063.125 0 .25.063.375.063.063 0 .063-.063.188-.063 0-.063.063-.125.063-.188.063-.063.063-.188.125-.25 0-.063.063-.125.063-.125.063-.063.063-.188.125-.313.063-.125 0-.188.063-.313v-.25c-.125-.063-.313-.125-.375-.25-.063.063-.063 0-.125 0v.063c-.063 0-.063-.063-.125-.063h-.501c-.063 0-.063.063-.125.063l-.063-.063c0 .063 0 0-.063 0s-.063.063-.063.063c-.063 0-.125-.063-.188-.063a7.917 7.917 0 01-.625.188c-.063.063-.063.188-.125.313v.063c-.063.063-.063.063-.125.063V9.5c0 .125-.063.125-.063.25-.188-.063-.188.125-.313.125-.063 0-.125-.063-.25-.063-.063-.063-.125-.125-.188-.125 0-.063-.063-.063 0-.125 0-.063-.125 0-.125-.063v-.063-.125h.063c.063-.063.063-.063.063-.125h.063l.063-.063c0-.063.063-.063.063-.125.063-.063.063-.063.063-.125.063 0 .063-.063.125-.063 0-.063.063-.063.063-.063v-.063h.188c.063-.063 0-.063.125-.063v-.063c.125 0 .25-.063.375-.063h.063c.063-.063.125-.063.188-.063s.188 0 .313-.063h.501s.188.063.188 0c.063 0 .063.063.125.063h.188v.063c.063 0 .063-.063.063 0h.063c.063.063.188.063.313.063 0 0 .125.063.125 0 .188 0 .25-.125.313-.188.063-.25.188-.375.25-.563.125-.063.188-.063.25-.188.125 0 .188.063.25.125zM22 13.563c.063 0 .063 0 .063-.063h.063s0-.125.063-.125c.063-.063.188-.063.188-.125s0 0 .063 0v-.063c0-.063.063-.063.063-.063.063-.063.063-.125.063-.188h.063v-.125h.063s0-.063.063-.063c0 0 .063 0 .125-.063 0-.125.063-.25.125-.313 0-.063.063-.063.063-.063v-.125c.063 0 .063.063.063 0l.063-.063h.063c-.063-.125 0-.125.063-.125 0-.063 0-.125.063-.125.063-.125.125-.188.125-.313.063.063.125-.063.125-.125.063-.063.063-.125.063-.25.063-.125.125-.25.125-.313s.063-.063.063-.063c.063 0 0-.063 0-.063.063 0 .063 0 .063-.063a.898.898 0 00.125-.438c.125-.063.125-.25.125-.438 0-.063-.063-.188-.125-.313-.063-.063-.125-.125-.188-.125 0-.063 0 0-.063-.063 0 0 0-.063-.063-.063s-.125.063-.188 0c0 .063-.063.063-.063.063v.063c-.063 0-.063.063-.125.063l-.063.063c-.063 0-.063.063-.125.063 0 0-.063.125-.125.125v.063c-.125.063-.125.063-.188.188-.063 0-.063.063-.125.063-.063.188-.125.375-.25.5.063.125 0 .188-.063.25l-.063.063v.125c0 .062-.063.125-.063.125 0 .063.063.063 0 .125 0 0-.063 0-.063.063v.063c0 .125-.063.25 0 .313-.063.063-.063.125-.125.188 0 0 .063 0 .063.063-.125.063-.063.125-.063.25-.125.063-.063.25-.188.313 0 .063.063.063.063.125-.063.063-.063.125-.063.188h-.063c-.063.063 0 .188-.063.313v.126c-.063.125-.063.125-.063.188v.063a.474.474 0 00.25.125zM7.938 20.625c.063.125.188.125.25.188.063 0 .063.063.063.063h.125v.063c0 .063.125 0 .125.063.125-.063.25 0 .375 0h.125c.063-.063.313-.063.438-.063.125-.125.25-.188.375-.313.125.063.188 0 .313 0s.25.063.375 0c.125 0 .125-.063.188-.063.063-.063.125-.063.125-.063.063-.063.125-.063.188-.063h.063s.063 0 .063-.063h.125s0-.063.063-.063.125-.063.188-.063c.063-.063.125-.063.188-.063 0-.063.063-.063.063-.125 0 0 .063.063.063 0h.063v-.063h.125c.063 0 .063-.063.125-.063s.25-.063.313 0c0 0 .063-.125.063-.063.125 0 .188-.063.25-.063.125-.063.125-.063.188-.188.063 0 0 0 0 0 .063-.063.125-.125.188-.125v-.063c.063 0 .125-.063.125-.063h.125c0-.063 0-.063.063-.063v-.063h.125l.063-.063h.125v-.063h.25v-.063c.063 0 .063.063.125.063s.125-.063.188-.063c.125.063.25 0 .375 0 .063.063.125.063.188.125.063 0 .188 0 .25.063.063 0 .063.063.063.063h.063c.063.063.063.125.125.125s.063.063.125.125v-.063l.063.063c.125 0 .188 0 .313-.063.063.063.188 0 .188.125h.125c.063.063.125 0 .188.063.063 0 .063.063.188.063.063-.063.125 0 .188 0h.063c.063.063.188.125.25.188.063 0 .063.063.125.063s.063.063.063.063h.125c.125.063.188.063.313.063 0 .125.125.063.125.188.125 0 .125.125.25.125 0 .063.063.063.125.063v.063h.125v.063h.063c.063.063.125.063.125.125h.063c.063 0 .063 0 .063.063.125.063.25.063.313.125.125 0 .125.063.188.063 0 .063.063.063.125.063 0 .063 0 .063.063.063.063.063.25 0 .375.063 0 .063.063 0 .063 0 .063 0 .063.063.063.063.063.063.188.063.313.063.125.063.375 0 .438 0h.375c.188-.063.375 0 .563 0 .125-.063.313-.063.5-.063.063 0 .125-.063.125-.063.125 0 .188.063.25.063s.063-.063.125-.063h.063c.063 0 .125-.063.188 0v-.063h.313v-.063c.063-.063.188-.063.25-.063.063-.063.125-.063.188-.063.063-.063.125-.125.25-.125.063-.063.125-.188.313-.188.063-.063.063-.125.125-.188.125 0 .188-.063.313-.063-.063-.125.063-.063.063-.125h.063c.125-.063.188-.125.313-.188.063 0 0-.125.125-.063 0-.125.125-.125.188-.188h.125c.125-.125.25-.125.313-.188.188-.063.313-.063.438-.063l.063-.063h.063s.063-.063.125-.063c.063-.063.188-.125.25-.188.125-.063.125-.125.25-.125.063-.063.063-.188.188-.125 0-.125.063-.188.063-.25v-.125c-.063-.063-.063-.125-.063-.188v-.063c-.063-.125 0-.188-.063-.25-.063-.063 0-.125 0-.125-.125-.063-.125-.125-.188-.188 0-.063-.063-.063-.125-.125 0 0 .063 0 0 0 0-.063-.125-.125-.125-.188s-.063-.125-.063-.188c-.063 0-.063 0-.063-.063s-.063-.063-.063-.063c-.063-.063-.063-.125-.063-.125 0-.125-.063-.188-.125-.313 0-.063-.063-.188-.125-.188 0-.063-.063-.125-.063-.188v-.25l-.188-.188v-.25c-.063-.125-.188-.313-.188-.5v-.125c0-.062-.063-.125-.063-.188v-.063-.125c-.063-.063-.063-.125-.063-.188-.063-.063-.063-.125-.063-.25v-.063-.125c0-.062-.063-.125-.063-.188 0 0 .063 0 .063-.063 0 0-.063 0-.063-.063h.063c0-.125.063-.25.063-.313v-.313s-.063 0-.063-.063c-.063 0 0-.063-.063-.125 0 0-.063 0 0-.063 0-.063.063-.125.125-.188v-.063-.5c0-.063.063-.063.063-.125s-.063-.063-.063-.125c.125-.125 0-.313-.063-.438 0-.188-.125-.375-.188-.5 0-.188-.063-.25-.125-.438 0-.063-.063-.063-.063-.063v-.063c-.063-.063-.125-.063-.125-.125v-.063c-.063 0-.125 0-.125-.063 0 0 0-.063-.063-.063 0 .063-.063.063-.125.063v.063h-.063c0 .063 0 .125-.063.188v.188s-.063.063-.063.125v.25c-.063 0-.125.063-.125.125.063.188-.125.25 0 .375-.125 0-.063.188-.125.188 0 .125-.063.25-.063.375v.376c-.063.125-.063.313-.063.375v.125c0 .125-.063.25-.063.313v.188c0 .063-.063.063-.063.125v.438c-.063.188-.188.375-.125.563-.125.063-.188.25-.25.375 0 .063-.063.125-.125.188 0 .125-.063.25-.188.313-.063 0-.125 0-.188-.063h-.063-.063v-.063c0-.063-.063-.063-.063-.063-.063-.063-.063-.25-.063-.313s.063-.063.125-.125.188-.125.25-.25c.063-.063.063-.125.125-.25.063-.063 0-.063.063-.188 0-.063 0-.188.063-.25v-.063c.063-.063.063-.125.063-.188.063-.125.063-.25.063-.313.063-.063.063-.063.063-.125v-.063-.125-.125c0-.188 0-.25-.063-.313-.125-.063-.125.063-.125.125-.125 0-.063.063-.188.063.063.063 0 .125 0 .188-.063 0-.063.063-.125.063 0 .125-.125.125-.063.188-.063 0-.125.063-.125.125-.063 0-.063.063-.125.063-.063.125-.188.188-.25.25 0 .063 0 .063-.063.125h-.063v.188c-.125 0-.125.063-.188.125 0 0-.063 0-.063.063-.063 0 0 .063-.063.063s-.063.063-.125.063-.063.125-.125.188h-.063l-.125.125c-.125.063-.25 0-.313-.063v-.125l-.063-.063v-.188c0-.125-.063-.125 0-.188 0-.125.063-.188.063-.25s-.063-.063-.063-.125v-.188c.063 0 0-.063 0-.063.063-.125.063-.188.125-.25v-.25c0-.062-.063 0-.063-.125 0-.063.063-.063.125-.188h-.063l.063-.063v-.25s.063-.063.063-.125v-.125-.063c0-.063.063-.125 0-.188-.125 0-.125.125-.188.125l-.063.063v.063c-.063 0-.063.125-.063.125s-.063-.063-.063 0v.063c0 .063-.063.063-.063.125-.063 0-.063.063-.063.125h-.063v.063c-.063.063-.125.063-.125.125-.125.063-.25.25-.375.313h-.063a.194.194 0 01-.125.063c-.063 0-.125-.063-.25-.063-.063 0-.188.063-.25.063s-.063-.063-.125-.063l-.063.063h-.188l-.188.375c-.063 0-.125.063-.063.125-.188.063-.188.25-.313.375 0 .125-.063.188-.125.25 0 .063-.063.063-.125.063 0 .063-.063.125-.125.188-.125.125-.25.25-.375.25 0 .063-.063.125-.125.125 0 .063 0 0-.063.063s-.063.125-.125.125-.063.125 0 .188c-.125 0-.125.125-.125.25-.188 0-.188.063-.25.125 0 .063-.063 0-.125 0 0 0 0 .063-.063.125-.063.188.063.25.063.375l-.188.188a.568.568 0 01-.188-.438c-.063 0-.063-.125-.125-.125h-.25c-.125 0-.188.063-.25.063-.125.063-.25.063-.375.125h-.188l-.063.063h-.188v.063h-.313l-.063.063s-.063-.063 0-.063c-.125.063-.125.063-.188.063s-.125-.063-.25-.063c-.063 0-.063.063-.125.063h-.188c-.063 0-.063 0-.125.063-.063 0-.188-.063-.313 0h-.375c-.063-.063-.125-.063-.125-.063-.063-.063-.125-.063-.188-.063 0-.063-.063-.063-.063-.063-.063 0-.063-.063-.063-.063 0-.063-.125-.063-.125-.063 0-.063 0-.063-.063-.063-.063-.063-.125-.125-.188-.125 0-.125-.063-.125-.063-.188-.063 0-.125-.063-.188-.125-.063-.125-.188-.188-.25-.313.063-.125.063-.25.125-.375 0 0 .125 0 .125-.063h.188c.062 0 .063-.063.125-.063s.125 0 .188-.063c0 0 0-.063.063-.063h.125s.063 0 .125-.063c0 0 .063-.063.125-.063-.063 0 0 0 0 0h.501c.063.063.063 0 .063 0h.063a.194.194 0 00.125.063h.125l.063.063c.125 0 .125 0 .188.063.125 0 .25.125.313.063h.063c.188.063.375.063.5 0 .063 0 .125 0 .125-.063l.063.063s.063 0 .125-.063h.25c.063 0 .125-.063.125-.063.063 0 .188.063.188.125.125.063.125.125.125.25.063 0 .125.063.25.063.125-.125.125-.25.188-.438l-.063-.063c0-.063 0 0 .063-.063h-.063v-.313-.125c0-.188-.063-.375-.063-.563 0-.063.063-.125.063-.25 0 0-.063 0-.063-.063h.063s-.063-.063-.063 0c0-.125.063-.188.063-.25l-.063-.063v-.125-.125c.063-.063.063-.063.063-.125.063 0 .063-.063.063-.125s.063-.125.063-.125c0-.125 0-.188-.063-.25.063-.063.125-.125.125-.188s.063-.063.063-.063c0-.063-.125-.125-.125-.25-.063.063-.188 0-.25.063-.063 0-.188.125-.188.188-.063.063-.125.063-.188.125-.063 0-.125.063-.188.063s-.063.063-.063.063c-.063.063-.125.063-.125.125-.063.063-.125.063-.188.188-.063-.063-.063 0-.063 0 0 .063-.063.063-.063.063-.063 0-.125.125-.188.125h-.125c0 .063-.063.063-.125.063-.125.063-.188.125-.313.188 0 .063-.063.063-.125.125-.063 0-.063.063-.125.063-.125.063-.25.063-.375.125l-.063.063h-.125c-.063.063-.125.063-.188.063 0 .063-.063 0-.063.063-.063 0-.063.063-.125.063 0 .063-.063.063-.125.063 0 0 0 .125-.063.125-.063-.063-.063 0-.063 0h-.125s0 .063-.063.063v.125c-.063 0-.063.063-.125.063 0 .063 0 .063-.063.125-.063 0-.063.063-.188.063 0 .125-.063.125-.125.188-.125.063-.188.125-.313.188 0 .063-.063.125-.063.188h-.125c0 .063-.063.125-.125.125-.063.125-.125.188-.25.313 0-.125-.063 0-.063 0-.063 0-.125.063-.125.063-.125.063-.188.125-.313.125-.125.188-.313.25-.5.313h-.25l-.063.063h-.063c-.063.063-.125.063-.188.063v.063c-.125 0-.25 0-.313.063-.063 0-.063-.063-.188-.063 0 0-.063.063-.125.063s-.125-.063-.188-.063c-.188.063-.25.063-.375.125-.063-.063-.313 0-.438 0h-.375c0 .063-.063.063-.125.063 0 .063-.063.063-.063.063v.063s-.063 0-.063.063-.125.125-.125.125v.25c.125.125.375.188.563.063 0 0 0-.063.063-.063 0 0 .063.063.063 0h.063c0-.063 0-.063.063-.063 0 0 .063-.063.125-.063.063-.063.063-.063.125-.063s.063.063.125 0 .063.063.125.063h.125c0 .125.063.188.125.25-.063.063-.063.125-.125.188l-.188.188c-.063 0-.125.063-.188.125h-.188a.568.568 0 01-.438.188c-.125 0-.063-.063-.125-.063h-.063c-.063-.063-.063-.063-.125-.063-.063-.063-.125 0-.188-.063-.188 0-.313 0-.5.125 0 0-.063.063-.125.063-.063-.063-.063 0-.125 0l-.063-.063h-.063v-.063c-.063-.063-.188-.063-.188-.125-.063-.063-.25-.125-.313-.063h-.063c-.063 0-.063.063-.063.063-.063 0-.063 0-.063.063h-.063c0 .063 0 .125-.063.125 0 .125.063.063.063.188-.063.125 0 .188-.063.375.063.063.125.063.125.125h.126c.063.063.188 0 .25.063.063-.063.125-.063.188-.063h.126c.125.063.125 0 .188.125 0 .063-.063.125-.063.125 0 .063-.063.063-.125.125 0 0-.125-.063-.063 0l-.125.125c0 .063.063.125.125.125.063.063.063.063.125.063.125.063.313 0 .375 0h.813c.063 0 .125-.063.125-.063.063.063.063 0 .125 0s.125.063.188 0h.188c.25-.063.438-.063.625 0 .125.063.188.063.313.125.188 0 .375-.063.5-.063s.188.063.25.063h.375c.063 0 .125.063.188.063.125 0 .25 0 .313-.063h.063s-.063-.063 0-.063c.125 0 .125-.063.188-.063s.063-.063.063-.063h.125l.125-.125h.313c.063.063.063.125.125.125l.063.063v.125s.063 0 0 .063-.125.125-.125.188c-.063 0-.125.063-.188.125 0 .063-.063.125-.125.125-.063.063-.125.063-.188.063l-.125.125c-.063 0-.125-.063-.125 0s-.063 0-.063 0l-.063.063c-.188.063-.313 0-.438.063-.063-.063 0 .063-.063.063-.063-.063-.063-.063-.125 0s-.188.125-.313.188h-.125s0 .063-.063.063-.125 0-.188.063l-.063.063h-.188c-.063.063-.063.063-.063.125-.063 0-.125 0-.125.063l-.188.188c-.063 0-.063.063-.063.063-.063 0-.063 0-.063.063h-.313v.063h-.25c0 .063-.063.063-.063.063-.063 0-.063.063-.063.063h-.063s-.063.063-.125.063c0 0-.063.063-.125.063s-.125.063-.188.063c0 .063 0 0 0 0v.063h-.063c-.063.063-.063.125-.125.063-.063.125-.125.125-.125.25zm9.875-10.25c0 .063-.063.063-.063.063 0 .063-.063.188-.063.25h-.063v.125c-.063.063-.063.188-.063.25v.25c0 .063-.063.063-.063.125s.063.125.063.188c-.063.063-.063.125-.125.188 0 .125-.063.188-.063.313 0 0 0 .063-.063.063 0 .125.063.125.063.188-.063 0-.125 0-.125.063 0 0 .063.063 0 .063v.563c0 .063-.063.125-.063.188s.063.125.063.188l-.063.063c0 .125-.063.25 0 .375-.063 0-.063.125-.063.188 0 .125.125.188.125.25.188 0 .375-.063.438-.063s.063-.063.125-.063h.063s.063-.063.063-.125c.063 0 .125 0 .125-.063.063 0 .063-.063.063-.125.125-.063.188-.125.313-.188 0-.125.125-.125.125-.25.063 0 .063-.125.188-.125 0-.188.188-.438.125-.688-.063-.063-.125-.125-.125-.25-.188 0-.188-.125-.313-.188 0-.063-.125-.125-.188-.188 0-.125-.063-.125-.063-.188s-.063-.063-.063-.125-.063-.188-.125-.313l-.125-.125c0-.125 0-.313.063-.438-.063 0-.063-.063-.063-.125.063 0 .063-.313 0-.313h-.063zm7.875 1.188h.063-.063zm-13.563 2.25s0 .063 0 0zm1.375.562c-.063.063-.125.125-.188.125 0 .063-.063.125-.063.188.125.063.313.125.375.063s.125-.063.125-.063h.063v-.063h.063v-.063-.125c-.125-.063-.188-.125-.375-.063zm1.688.938l-.063-.063h-.063l-.063-.063h-.063-.251c-.063 0-.063-.063-.125-.063h-.188l-.063.063h-.125c-.063-.063-.125 0-.125 0-.188 0-.25 0-.313.063s-.125.063-.063.125.063.063.188.063c-.063.063.063.063.125.063s.125.063.188 0h.125c.063.063.25.063.25 0h.376c0-.063.063-.063.063-.063l.063-.063c.063.063.188.063.25-.063h-.125zm1.687.062s-.063 0 0 .063v-.063zm-11 2.375s0-.063 0 0zm4.063.688c-.063 0-.063.125-.125.063-.125-.063-.375 0-.5-.063h-.125c-.063 0-.125.063-.125.063-.063 0-.063-.063-.063-.063s0 .063-.063.063h-.438c-.063.063 0 .125-.125.125-.063-.063-.188-.063-.313-.063H7.81h-.063-.063l-.063.063h-.125c-.063-.063-.125 0-.188 0 0-.063-.063 0-.125 0 0-.063 0-.063-.063-.125-.125.063-.125 0-.25 0-.063-.063-.063-.125-.125-.125h-.063s0-.063-.063-.063c0 0-.063-.063-.125-.063 0 0-.063 0-.125-.063h-.063-.063c0-.063-.063-.125-.063-.125-.063-.063-.125.063-.125 0s-.063-.063-.063-.063-.063-.063-.125-.063c-.063 0-.063.063-.063.063h-.063c-.125 0-.063 0-.125.063s-.188.063-.25.125h-.125c-.125.063-.188.188-.313.25 0 0 0 .125-.063.063 0 .063-.063.125-.125.125s-.063.125-.125.125h-.063v.063c0 .063-.063.063-.063.063l-.188.188v.063h-.063l-.063.063s-.063 0-.063.063c-.063 0-.063.063-.125.063l-.063.063s0 .063-.063.063c0 0 0 .063-.063 0v.125c-.125.063-.188.188-.313.188-.063.125-.125.25-.188.313 0 .125-.063.188-.063.25 0 0 0 .063-.063.125 0 .063.125 0 .063.063 0 .063 0 .125-.063.188v.188s-.063.063-.063.125l.125.125c-.063.125 0 .125.063.25-.063.063 0 .125 0 .188s.063.125.063.188c.063 0 0 .063 0 .125h.063v.188s.063 0 .063.063.063.125.063.188c.063 0 .063.063.125.063 0 .063.063.063.125.063v.125c.063 0 .063.063.125.063l.063.063c.063 0 .188 0 .25.063 0-.063 0-.063.063-.063s.063 0 .125-.063c.063-.125.125-.313 0-.5v-.125c-.063 0-.125-.125-.125-.188s.063-.313.063-.375c.063-.063.063-.188.063-.25 0 0 .063 0 .063-.063v-.063l.063-.063c0-.063-.063-.125 0-.125s.063-.063.063-.063l.125-.125s0-.063.063-.063 0-.063.063-.063c.063-.063.063-.125.125-.125.063-.063.125-.125.25-.125a.646.646 0 01.375-.313c0-.063.063-.063.125-.125.063-.125.125-.25.375-.188.063-.063.188-.188.313-.188.063 0 .063-.063.063-.063.125-.063.188 0 .25 0s.063-.063.063-.063h.125c.063-.125.063-.125.188-.125h.125c.063.063.063.125.125.125h.063l.063.063.063-.063c.063 0 .063.063.063.063.063 0 .063-.063.125 0h.438c0 .063.063 0 .125 0 .063.063.063.063.125.063h.375c.125-.063.25-.125.375-.125 0-.063.063-.063.125-.125l.125-.125h.063l.063-.063c.063-.063.063-.063.125-.063 0 0 0-.063.063-.063h.063c.063-.063.188-.063.188-.125.063-.063.063-.125.125-.188l-.188-.188zm15.625 2.375c-.063-.125-.125 0 0 0-.063 0-.063.063-.063.063a.482.482 0 00-.313.125s0 .063-.063.125c-.063 0-.125.063-.25.125a.485.485 0 01-.5-.125c-.125 0-.188-.063-.25 0l-.063.063h-.063s-.063.063-.125.063h-.063s-.063.063-.125.063c0 .063-.063.063-.125.125-.063 0-.063.063-.063.063s-.063-.063-.125-.063l-.063.063h-.125-.063-.063l-.063.063h-.063-.063v.063h-.125s-.063.063-.188.063h-.188c-.063 0-.063-.063-.125-.063-.063 0-.125.063-.125.063-.125 0-.25 0-.375.063l-.063.063h-.063s0 .063-.063.063h-.063c-.063 0-.063.063-.125.063 0 0 0-.063-.063-.063 0 0-.063.063-.125 0 0 .063-.125.063-.188.063v-.063c-.063.125-.375-.063-.438 0 0-.063-.063-.063-.125-.125-.063.063-.125 0-.188.063-.063 0-.063.063-.125.063-.063.063-.125.063-.188.063-.188.063-.25 0-.375-.125 0 0 0-.063-.063-.063-.125-.063-.188-.188-.313-.25-.063.063-.125-.063-.25 0-.063.063-.125.063-.188.125 0 .188.063.313.063.438.063.063.063.125.063.25 0 0 0 .063.063.125h.125c-.063.25.063.375.063.625.125 0 .125.125.125.25.125 0 .125.063.188.188.063-.063.063 0 .125.063h.188c.125 0 .125-.063.188-.063.063-.125 0-.188 0-.313-.063-.063-.125-.125-.125-.188-.063-.063-.063-.188-.063-.25.125-.125.188-.125.313 0h.063v.063h.063c.063.063.188.188.25.188 0 .063.063.063.063.125.063.063.063.063.125.063.125.063.188-.063.25-.125 0-.188.188-.375.375-.25.063.063 0 .25 0 .438.063.063.125.063.188.125l.188.188c-.125 0-.188.063-.188.25.063 0 .125.125.188.125.125 0 .125-.063.188-.063s.125.063.188 0 .188-.063.313-.063c.063 0 .125-.063.188-.125h.188c.063-.063.125-.063.188-.063.063-.063.063-.063.063-.125l.188-.188s.063 0 .063-.063l.063-.063c.063-.063.063-.063.125-.063.063-.063.063-.063.125-.063h.188l.125-.125h.188c.063 0 .063 0 .188-.063h.376c0-.063 0-.063.063-.063s.063.063.188 0c0 .063.063.063.063.125s-.125.063-.125.125c-.063.125-.313.063-.375.063-.125.125-.375.063-.438.313 0 .063.063 0 .125.063h.189v.063c.188.063.438-.125.563-.063.125-.125.313-.188.438-.313.063.063.063-.063.188 0 .063-.063.063-.125.125-.188.063 0 .125 0 .188-.063 0-.063.125-.063.188-.125v-.063s.063.063.063 0 0-.063.063-.063.063-.063.125-.063c0-.063.063-.063.063-.063.063 0 .063-.063.063-.063.063 0 .063-.063.125-.063.063-.063.125-.188.188-.25h.188c.063-.063.125-.125.188-.125.063-.063.125-.125.188-.063.063-.125.188-.125.313-.25h.125c0-.063.063-.063.125-.125v-.063c.063 0 .063-.063.125-.063h.063s-.063-.063 0-.063h.063v-.063h.063c0-.063 0-.063.063-.063 0-.063 0-.063.063-.063v-.063c.063 0 .063 0 .125-.063v-.063c.063-.063.063-.25 0-.375 0 0 0-.063-.063-.063 0-.063-.063-.063-.063-.063v-.125c0-.063-.063-.063-.063-.063 0-.063-.063-.063-.125-.125v-.063c-.063 0-.125-.063-.125-.125-.063-.063-.125-.125-.125-.188-.063 0-.125 0-.125-.063s-.063-.188-.125-.25c-.063-.063-.125-.063-.188-.125-.063.063-.125.063-.188.063s-.063.063-.063.063h-.125s-.063.063-.125.063v.063c-.063 0-.125 0-.125.063-.063 0-.063.063-.125.125s-.188.125-.188.313c-.063 0-.125.063-.125.188h-.125c-.063.063-.063.125-.125.125l-.188.188c-.063 0-.125.063-.188.063v.063h-.063zm1.812.187c0 .125 0 .188-.063.25-.063 0-.125-.063-.125-.063 0-.188.063-.25.188-.188zm-1 1.063c-.063-.125-.125-.125-.125-.188v-.125h.125v-.063c.063 0 .125 0 .188-.063 0 0 .063 0 .125.063l.063.063c0 .125 0 .188-.063.25-.063 0-.063 0-.063.063h-.25zm-3.812.875c0 .125-.188.063-.188.25-.125 0-.188.063-.313 0l-.125-.125c0-.063.063-.063.063-.125.063 0 .063-.063.125-.063s.063-.063.063-.063c.063 0 .125-.063.25 0 .063 0 .125.063.125.125z"></path>
</svg>